<svg width="current" height="current" viewBox="0 0 24 24" fill="none" xmlns="http://www.w3.org/2000/svg">
<path d="M19.8 9.00003C19.7996 7.61642 19.4312 6.25781 18.7326 5.06355C18.0339 3.86928 17.0302 2.88235 15.8243 2.20396C14.6184 1.52558 13.2538 1.18017 11.8703 1.20316C10.4869 1.22615 9.13453 1.61672 7.95185 2.33479C6.76917 3.05286 5.79878 4.07261 5.1402 5.28943C4.48163 6.50624 4.15858 7.87634 4.20419 9.2592C4.2498 10.6421 4.66242 11.9879 5.39974 13.1587C6.13705 14.3295 7.17253 15.283 8.39995 15.9216V18C8.39995 18.3183 8.52638 18.6235 8.75142 18.8486C8.97647 19.0736 9.28169 19.2 9.59995 19.2H14.4C14.7182 19.2 15.0234 19.0736 15.2485 18.8486C15.4735 18.6235 15.6 18.3183 15.6 18V15.9216C16.8664 15.2627 17.9277 14.2689 18.6683 13.0484C19.4089 11.8279 19.8003 10.4276 19.8 9.00003V9.00003Z" stroke="current" stroke-width="1.5" stroke-linecap="round" stroke-linejoin="round"/>
<path d="M8.3999 22.8H15.5999" stroke="current" stroke-width="1.5" stroke-linecap="round" stroke-linejoin="round"/>
</svg>
