<svg width="current" height="current" viewBox="0 0 24 24" fill="none" xmlns="http://www.w3.org/2000/svg">
<path d="M20.2134 2H5.20577C4.73193 2 4.2775 2.18804 3.94244 2.52275C3.60739 2.85747 3.41916 3.31144 3.41916 3.7848V16.7924C3.42585 16.835 3.42585 16.8783 3.41916 16.9209L2.06132 20.5619C2.00444 20.7226 1.98678 20.8946 2.00981 21.0635C2.03285 21.2324 2.09592 21.3933 2.19378 21.533C2.29164 21.6726 2.42145 21.7869 2.57243 21.8664C2.72341 21.9458 2.8912 21.9881 3.06183 21.9897C3.15183 22.0034 3.2434 22.0034 3.3334 21.9897L8.47886 20.5619H20.2134C20.6872 20.5619 21.1417 20.3738 21.4767 20.0391C21.8118 19.7044 22 19.2504 22 18.7771V3.7848C22 3.31144 21.8118 2.85747 21.4767 2.52275C21.1417 2.18804 20.6872 2 20.2134 2V2Z" fill="current" stroke="current" stroke-width="1.5" stroke-linecap="round" stroke-linejoin="round"/>
</svg>
