<svg width="current" height="current" viewBox="0 0 24 24" fill="none" xmlns="http://www.w3.org/2000/svg">
<path d="M11.997 2C10.1887 2.00056 8.41441 2.49175 6.86309 3.42125C5.31177 4.35075 4.04155 5.68375 3.1877 7.27827C2.33386 8.87279 1.92838 10.6691 2.01444 12.4759C2.1005 14.2827 2.67489 16.0324 3.67643 17.5385L2 22L7.61373 20.9846C8.96549 21.6454 10.4489 21.9924 11.9534 21.9999C13.458 22.0073 14.9448 21.675 16.303 21.0277C17.6612 20.3803 18.8559 19.4347 19.7979 18.2612C20.7399 17.0877 21.405 15.7167 21.7436 14.2503C22.0822 12.7839 22.0855 11.26 21.7533 9.7922C21.4211 8.32436 20.762 6.95044 19.8251 5.77287C18.8883 4.5953 17.6977 3.64444 16.3423 2.99119C14.9869 2.33793 13.5016 1.99911 11.997 2V2Z" stroke="current" stroke-linecap="round" stroke-linejoin="round"/>
<path d="M7 10H17" stroke="current" stroke-linecap="round" stroke-linejoin="round"/>
<path d="M7 14H14" stroke="current" stroke-linecap="round" stroke-linejoin="round"/>
</svg>
