<svg width="current" height="current" viewBox="0 0 24 24" fill="none" xmlns="http://www.w3.org/2000/svg">
<path d="M21.7857 11.5011L12.5 2.21643C12.4359 2.14811 12.3584 2.09365 12.2724 2.05643C12.1864 2.01921 12.0937 2 12 2C11.9063 2 11.8136 2.01921 11.7276 2.05643C11.6416 2.09365 11.5641 2.14811 11.5 2.21643L2.21433 11.5011C2.14571 11.5649 2.09119 11.6423 2.05429 11.7284C2.01738 11.8145 1.99891 11.9074 2.00005 12.0011V19.2289C2.00005 19.5928 2.07173 19.9531 2.21101 20.2893C2.35029 20.6255 2.55443 20.931 2.81178 21.1884C3.06913 21.4457 3.37465 21.6498 3.71089 21.7891C4.04713 21.9283 4.40752 22 4.77146 22H19.2285C19.9636 22 20.6685 21.708 21.1882 21.1884C21.708 20.6687 22 19.9638 22 19.2289V12.0011C22.0011 11.9074 21.9826 11.8145 21.9457 11.7284C21.9088 11.6423 21.8543 11.5649 21.7857 11.5011Z" fill="current" stroke="current" stroke-width="1.5" stroke-linecap="round" stroke-linejoin="round"/>
</svg>
