<svg width="current" height="current" viewBox="0 0 24 24" fill="none" xmlns="http://www.w3.org/2000/svg">
<path d="M6.29801 10.1956L10.288 3.81798C10.4426 3.5659 10.6599 3.35817 10.9187 3.21502C11.1774 3.07187 11.4689 2.99818 11.7646 3.00113V3.00113C11.9975 2.99273 12.2297 3.03109 12.4475 3.11396C12.6653 3.19683 12.8643 3.32253 13.0327 3.48361C13.2011 3.6447 13.3355 3.83791 13.428 4.05183C13.5205 4.26575 13.5691 4.49603 13.571 4.72907V9.30024H20.4671C20.7219 9.3085 20.9721 9.37061 21.2012 9.48248C21.4303 9.59434 21.6331 9.75343 21.7963 9.94929C21.9595 10.1451 22.0794 10.3733 22.1481 10.6188C22.2169 10.8644 22.2328 11.1216 22.195 11.3738L20.9383 19.4793C20.8847 19.9125 20.6748 20.3112 20.3479 20.6005C20.021 20.8897 19.5998 21.0497 19.1633 21.0502H8.8585C8.36795 21.0521 7.88377 20.9391 7.44473 20.7203L6.31372 20.1548" stroke="current" stroke-width="current" stroke-linecap="round" stroke-linejoin="round"/>
<path d="M6.29801 10.1956V20.1077" stroke="current" stroke-width="current" stroke-linecap="round" stroke-linejoin="round"/>
<path d="M2.5751 10.1956H6.29801V20.1077H2.5751C2.36679 20.1077 2.16702 20.0249 2.01972 19.8776C1.87243 19.7303 1.78968 19.5306 1.78968 19.3223V10.981C1.78968 10.7727 1.87243 10.573 2.01972 10.4257C2.16702 10.2784 2.36679 10.1956 2.5751 10.1956V10.1956Z" stroke="current" stroke-width="current" stroke-linecap="round" stroke-linejoin="round"/>
</svg>
